<?xml version="1.0" encoding="UTF-8" standalone="no"?>
<!-- Generator: Adobe Illustrator 19.1.0, SVG Export Plug-In . SVG Version: 6.00 Build 0)  -->

<svg
   xmlns:dc="http://purl.org/dc/elements/1.1/"
   xmlns:cc="http://creativecommons.org/ns#"
   xmlns:rdf="http://www.w3.org/1999/02/22-rdf-syntax-ns#"
   xmlns:svg="http://www.w3.org/2000/svg"
   xmlns="http://www.w3.org/2000/svg"
   xmlns:sodipodi="http://sodipodi.sourceforge.net/DTD/sodipodi-0.dtd"
   xmlns:inkscape="http://www.inkscape.org/namespaces/inkscape"
   version="1.1"
   id="Layer_1"
   x="0px"
   y="0px"
   viewBox="0 0 69.38385 13.802735"
   enable-background="new 0 0 90.708664 22.677166"
   xml:space="preserve"
   inkscape:version="0.91 r13725"
   sodipodi:docname="glbinding.svg"
   width="100.53"
   height="20.0"><metadata
     id="metadata27"><rdf:RDF><cc:Work
         rdf:about=""><dc:format>image/svg+xml</dc:format><dc:type
           rdf:resource="http://purl.org/dc/dcmitype/StillImage" /><dc:title></dc:title></cc:Work></rdf:RDF></metadata><defs
     id="defs25" /><sodipodi:namedview
     pagecolor="#ffffff"
     bordercolor="#666666"
     borderopacity="1"
     objecttolerance="10"
     gridtolerance="10"
     guidetolerance="10"
     inkscape:pageopacity="0"
     inkscape:pageshadow="2"
     inkscape:window-width="1512"
     inkscape:window-height="853"
     id="namedview23"
     showgrid="false"
     fit-margin-top="0"
     fit-margin-left="0"
     fit-margin-right="0"
     fit-margin-bottom="0"
     inkscape:zoom="11.465277"
     inkscape:cx="53.02856"
     inkscape:cy="6.876465"
     inkscape:window-x="75"
     inkscape:window-y="34"
     inkscape:window-maximized="0"
     inkscape:current-layer="Layer_1" /><polygon
     points="12.998943,12.874616 9.334697,6.527889 19.106123,6.527889 20.327551,4.412313 5.670412,4.412313 12.998981,17.105768 16.663229,10.75904 15.441837,8.643465 "
     id="polygon3"
     style="fill:#f25c05"
     transform="translate(-5.670412,-4.412313)" /><polygon
     points="23.991837,6.527889 22.770407,4.412313 15.441837,17.105898 25.213264,17.105898 23.991837,14.990321 19.106123,14.990322 "
     id="polygon5"
     style="fill:#f25c05"
     transform="translate(-5.670412,-4.412313)" /><g
     id="g7"
     transform="translate(-5.670412,-4.412313)"><path
       d="m 27.670473,4.567586 1.700195,0 0,2.69043 -0.04443,1.212891 c 0.606445,-0.532227 1.360352,-0.902344 2.099609,-0.902344 1.81885,0 2.868654,1.449219 2.868654,3.681641 0,2.499023 -1.493652,3.933594 -3.105471,3.933594 -0.665039,0 -1.375,-0.325195 -1.980957,-0.916992 l -0.04443,0 -0.147949,0.739258 -1.345215,0 0,-10.438478 z m 3.164063,9.210938 c 0.960938,0 1.700197,-0.857422 1.700197,-2.498047 0,-1.449219 -0.473145,-2.306641 -1.567385,-2.306641 -0.532227,0 -1.034668,0.265625 -1.59668,0.8125 l 0,3.386719 c 0.517579,0.44336 1.035157,0.605469 1.463868,0.605469 z"
       id="path9"
       inkscape:connector-curvature="0"
       style="fill:#f25c05" /><path
       d="m 35.816471,5.513875 c 0,-0.577148 0.443359,-0.976563 1.049805,-0.976563 0.605957,0 1.049805,0.399414 1.049805,0.976563 0,0.561523 -0.443848,0.960938 -1.049805,0.960938 -0.606446,0 -1.049805,-0.399414 -1.049805,-0.960938 z m 0.192383,2.232422 1.700195,0 0,7.259766 -1.700195,0 0,-7.259766 z"
       id="path11"
       inkscape:connector-curvature="0"
       style="fill:#f25c05" /><path
       d="m 39.882389,7.746297 1.404297,0 0.118164,0.975586 0.05957,0 c 0.650391,-0.635742 1.389648,-1.153321 2.380371,-1.153321 1.552246,0 2.232422,1.049805 2.232422,2.88379 l 0,4.553711 -1.700195,0 0,-4.332031 c 0,-1.198242 -0.339844,-1.641602 -1.138672,-1.641602 -0.635742,0 -1.049805,0.310547 -1.655762,0.902344 l 0,5.071289 -1.700195,0 0,-7.259766 z"
       id="path13"
       inkscape:connector-curvature="0"
       style="fill:#f25c05" /><path
       d="m 50.793522,7.568563 c 0.827637,0 1.345215,0.310547 1.907227,0.798829 l -0.05908,-1.167969 0,-2.631837 1.700195,0 0,10.438477 -1.404785,0 -0.118164,-0.783203 -0.05908,0 c -0.532227,0.532227 -1.271484,0.960938 -2.055176,0.960938 -1.818848,0 -2.986816,-1.405273 -2.986816,-3.799805 0,-2.366211 1.493653,-3.81543 3.075684,-3.81543 z m 0.325195,6.209961 c 0.561523,0 1.034668,-0.250977 1.522949,-0.8125 l 0,-3.386718 C 52.138736,9.135947 51.650943,8.973837 51.16315,8.973837 c -0.931641,0 -1.685547,0.87207 -1.685547,2.394531 10e-7,1.567383 0.59131,2.410156 1.641114,2.410156 z"
       id="path15"
       inkscape:connector-curvature="0"
       style="fill:#f25c05" /><path
       d="m 56.307682,5.513875 c 0,-0.577148 0.443359,-0.976563 1.049805,-0.976563 0.605957,0 1.049805,0.399414 1.049805,0.976563 0,0.561523 -0.443848,0.960938 -1.049805,0.960938 -0.606446,0 -1.049805,-0.399414 -1.049805,-0.960938 z m 0.192383,2.232422 1.700195,0 0,7.259766 -1.700195,0 0,-7.259766 z"
       id="path17"
       inkscape:connector-curvature="0"
       style="fill:#f25c05" /><path
       d="m 60.373112,7.746297 1.404297,0 0.118652,0.975586 0.05908,0 c 0.650391,-0.635742 1.389648,-1.153321 2.380367,-1.153321 1.552246,0 2.232422,1.049805 2.232422,2.88379 l 0,4.553711 -1.700195,0 0,-4.332031 c 0,-1.198242 -0.339844,-1.641602 -1.138668,-1.641602 -0.635742,0 -1.049805,0.310547 -1.655762,0.902344 l 0,5.071289 -1.700195,0 0,-7.259766 z"
       id="path19"
       inkscape:connector-curvature="0"
       style="fill:#f25c05" /><path
       d="m 69.19928,14.769735 0,-0.05957 c -0.369629,-0.236328 -0.650391,-0.621094 -0.650391,-1.211914 0,-0.5625 0.384277,-1.049805 0.79834,-1.345703 l 0,-0.05957 c -0.488281,-0.369141 -0.946289,-1.064453 -0.946289,-1.921875 0,-1.670898 1.345215,-2.60254 2.868164,-2.60254 0.399414,0 0.769043,0.074219 1.064941,0.177734 l 2.602051,0 0,1.256836 -1.330566,0 c 0.236328,0.28125 0.414063,0.724609 0.414063,1.227539 0,1.611328 -1.212402,2.46875 -2.750488,2.46875 -0.310547,0 -0.665039,-0.05957 -0.990723,-0.192383 -0.22168,0.192383 -0.354492,0.370117 -0.354492,0.695313 0,0.414063 0.29541,0.665039 1.182617,0.665039 l 1.286621,0 c 1.744629,0 2.661133,0.532227 2.661133,1.789063 0,1.43457 -1.507813,2.558594 -3.873535,2.558594 -1.72998,0 -3.016602,-0.621094 -3.016602,-1.892578 0,-0.606446 0.369628,-1.138672 1.035156,-1.552735 z m 2.247558,2.335938 c 1.167969,0 1.966309,-0.546875 1.966309,-1.167969 0,-0.561523 -0.458496,-0.724609 -1.286133,-0.724609 l -0.990723,0 c -0.399414,0 -0.709961,-0.0293 -0.990723,-0.103516 -0.384277,0.295898 -0.562012,0.621094 -0.562012,0.960938 10e-7,0.65039 0.709962,1.035156 1.863282,1.035156 z m 1.079102,-6.93457 c 0,-0.902344 -0.546875,-1.43457 -1.256836,-1.43457 -0.709473,0 -1.271484,0.517578 -1.271484,1.43457 0,0.931641 0.562012,1.463867 1.271484,1.463867 0.695313,0 1.256836,-0.532227 1.256836,-1.463867 z"
       id="path21"
       inkscape:connector-curvature="0"
       style="fill:#f25c05" /></g></svg>